<mxfile host="app.diagrams.net" modified="2024-07-24T21:29:30.647Z" agent="Mozilla/5.0 (Macintosh; Intel Mac OS X 10_15_7) AppleWebKit/605.1.15 (KHTML, like Gecko) Version/17.5 Safari/605.1.15" version="24.7.2" etag="0EVN6s_MJcKB6_wMX_uf" type="github">
  <diagram name="Page-1" id="D15FZN1Z_YlNMzAuyIRf">
    <mxGraphModel>
      <root>
        <mxCell id="0" />
        <mxCell id="1" parent="0" />
      </root>
    </mxGraphModel>
  </diagram>
</mxfile>
